<svg preserveAspectRatio="none" width="100%" height="100%" overflow="visible" style="display: block;" viewBox="0 0 19.1733 22.5112" fill="none" xmlns="http://www.w3.org/2000/svg">
<path id="vector" d="M2.2363 9.38659C2.46607 9.04194 2.93169 8.94882 3.27634 9.17858C3.62051 9.40848 3.71398 9.87417 3.48435 10.2186L1.53708 13.1385C1.49111 13.208 1.48833 13.3056 1.52732 13.3749C1.57671 13.4621 1.66879 13.5123 1.7529 13.5126H7.7529C8.16703 13.5127 8.5029 13.8484 8.5029 14.2626V20.7626C8.50315 20.8606 8.55778 20.9554 8.68845 21.0018C8.80556 21.0312 8.91968 20.9808 8.9697 20.9061L10.7461 18.2421C10.9759 17.8976 11.4415 17.8043 11.7861 18.0341C12.1302 18.2639 12.2236 18.7297 11.9941 19.0741L10.2177 21.7382C9.78892 22.3811 8.98699 22.6486 8.26755 22.4432C8.26054 22.4412 8.25302 22.4396 8.24607 22.4374C7.50662 22.2021 7.00319 21.5409 7.0029 20.7626V15.0126H1.7529C1.11781 15.0124 0.530267 14.6619 0.219699 14.1102C-0.101103 13.5399 -0.0643041 12.837 0.289035 12.3065L2.2363 9.38659ZM1.10544 2.41589C1.40531 2.1303 1.8803 2.14157 2.16599 2.44128L17.166 18.1913C17.4514 18.4912 17.4403 18.9662 17.1406 19.2518C16.8408 19.5373 16.3657 19.526 16.0801 19.2264L1.08005 3.47643C0.794482 3.17659 0.805789 2.70158 1.10544 2.41589ZM8.95603 0.773308C9.35808 0.170231 10.0879 -0.102683 10.7705 0.0350267L10.9062 0.0682298L10.9277 0.0740892C11.6671 0.309474 12.1697 0.970561 12.1699 1.74889V7.49889H17.4199C18.0553 7.49896 18.6435 7.84921 18.9541 8.40124C19.2747 8.97164 19.2373 9.67457 18.8838 10.2049L16.9375 13.1249C16.7077 13.4692 16.2419 13.5623 15.8974 13.3329C15.553 13.1031 15.46 12.6374 15.6894 12.2928L17.6357 9.37292C17.6819 9.30358 17.6853 9.20603 17.6465 9.13659C17.597 9.04896 17.5042 8.99897 17.4199 8.99889H11.4199C11.006 8.99872 10.6702 8.66277 10.6699 8.24889V1.74889C10.6698 1.65059 10.6157 1.55501 10.4843 1.50866C10.3673 1.47961 10.2539 1.53063 10.2041 1.60534L8.24704 4.54089C8.01726 4.88517 7.55151 4.97835 7.207 4.74889C6.86247 4.5192 6.76951 4.05347 6.999 3.70885L8.95603 0.773308Z" fill="var(--fill-0, black)"/>
</svg>
