<svg width="18" height="18" viewBox="0 0 17.5068 17.5068" fill="none" xmlns="http://www.w3.org/2000/svg">
<path d="M7.81152 0C12.1258 0 15.6238 3.4973 15.624 7.81152C15.624 9.69866 14.9539 11.4289 13.8398 12.7793L17.2871 16.2256C17.58 16.5185 17.58 16.9942 17.2871 17.2871C16.9942 17.58 16.5185 17.58 16.2256 17.2871L12.7793 13.8398C11.4289 14.9539 9.69866 15.624 7.81152 15.624C3.4973 15.6238 0 12.1258 0 7.81152C0.000225735 3.49744 3.49744 0.000225731 7.81152 0ZM7.81152 1.5C4.32587 1.50023 1.50023 4.32587 1.5 7.81152C1.5 11.2974 4.32573 14.1238 7.81152 14.124C11.2975 14.124 14.124 11.2975 14.124 7.81152C14.1238 4.32573 11.2974 1.5 7.81152 1.5Z" fill="#031373"/>
</svg>
