<svg width="16" height="19" viewBox="0 0 15.5059 19.0068" fill="none" xmlns="http://www.w3.org/2000/svg">
<path d="M14.7559 8.40332C15.17 8.40333 15.5058 8.7392 15.5059 9.15332C15.5059 13.1821 12.4328 16.4928 8.50293 16.8701V18.2568C8.50293 18.671 8.16703 19.0067 7.75293 19.0068C7.33881 19.0067 7.00293 18.671 7.00293 18.2568V16.8701C3.07304 16.4928 0 13.1821 0 9.15332C9.89401e-05 8.73919 0.335847 8.40332 0.75 8.40332C1.16415 8.40332 1.4999 8.73919 1.5 9.15332C1.5 12.6067 4.29954 15.4062 7.75293 15.4062C11.2063 15.4062 14.0059 12.6067 14.0059 9.15332C14.006 8.73919 14.3417 8.40332 14.7559 8.40332ZM7.75391 0C9.8735 0.00105369 11.592 1.71921 11.5928 3.83887V8.98828L11.5879 9.17871C11.5411 10.1275 11.1435 11.0281 10.4688 11.7031C9.74871 12.4232 8.77121 12.8284 7.75293 12.8281C5.69941 12.8274 4.02253 11.2145 3.91895 9.18652L3.91406 8.98828V3.83887L3.91895 3.6416C4.02233 1.61347 5.69927 0.000757148 7.75293 0H7.75391ZM7.75293 1.5C6.46132 1.50078 5.41448 2.54815 5.41406 3.83984V8.98828L5.42578 9.22754C5.54599 10.407 6.5428 11.3277 7.75391 11.3281C8.37408 11.3281 8.96966 11.0811 9.4082 10.6426C9.84657 10.2039 10.093 9.60844 10.0928 8.98828V3.83984L10.0801 3.60059C9.96005 2.42106 8.964 1.50058 7.75293 1.5Z" fill="#181386"/>
</svg>
